<?xml version="1.0" encoding="utf-8"?>
<svg id="Layer_1" data-name="Layer 1" viewBox="0 0 933.93 318.72" xmlns="http://www.w3.org/2000/svg">
  <defs>
    <style>.cls-1{fill:#34a1ff;}</style>
  </defs>
  <title>logo</title>
  <path class="cls-1" d="M448.11,426a13.69,13.69,0,0,0-1.65-5.22,28.49,28.49,0,0,0-5.15-6.23c-4-3.95-8.16-8.09-11.79-11.73l-6.19-6.2c.31-.64.63-1.29.94-1.94l.11-.22a86,86,0,0,0,3.64-8.15,60.48,60.48,0,0,0-45.09-79.95c-1.88-.36-3.83-.61-5.6-.83l-2.61-.33-.2,0h-6.71l-.38,0-2.2.29c-1.55.2-3.32.42-5.05.75a59.57,59.57,0,0,0-38,23.93,58.71,58.71,0,0,0-11.37,30.88,2.08,2.08,0,0,1-.08.33l-.1.43a2.6,2.6,0,0,0-.06.56l0,6.88a1.27,1.27,0,0,0,0,.2c.11.76.2,1.51.3,2.26.2,1.57.43,3.35.76,5.1a60.38,60.38,0,0,0,90.24,40.94q3.9,3.95,7.84,7.86c3.39,3.38,6.9,6.88,10.3,10.35a24.84,24.84,0,0,0,8,5.77,13.86,13.86,0,0,0,10.6,0,15.1,15.1,0,0,0,5.86-4A15.56,15.56,0,0,0,448.11,426Zm-34.92-20.86c.63.67,1.28,1.35,1.94,2l10.7,10.71q5.24,5.22,10.44,10.46a2.13,2.13,0,0,1,.67,2.05,1.68,1.68,0,0,1-1.3,1.17c-.51.13-1.05.16-2-.8q-10.58-10.61-21.18-21.2L410.91,408l-.3-.3Zm4.91-39.62a47.14,47.14,0,0,1-47,47.15h-.1a46.39,46.39,0,0,1-33-13.65A46.93,46.93,0,0,1,371,318.82h0a46.91,46.91,0,0,1,33.25,13.67A46.31,46.31,0,0,1,418.1,365.54Z" transform="translate(-220.07 -214.66)"/>
  <path class="cls-1" d="M369.9,324.27h-.56c-4.4,0-7.4,2.68-7.47,6.68s2.92,6.74,7.25,6.94a33.89,33.89,0,0,1,5.58.6A30.29,30.29,0,0,1,399.07,368c.08,4.09,2.94,7.06,6.79,7.06H406a6.67,6.67,0,0,0,4.8-2.1,7.12,7.12,0,0,0,1.84-5.29,59.09,59.09,0,0,0-.77-7.5C408.34,340.11,390.33,324.68,369.9,324.27Z" transform="translate(-220.07 -214.66)"/>
  <path class="cls-1" d="M 272.256 172.148 C 273.336 179.948 280.966 184.898 291.956 184.898 C 302.206 184.898 309.716 179.598 309.716 172.318 C 309.716 166.058 304.936 162.318 294.066 159.738 L 283.476 157.148 C 268.616 153.678 261.836 146.508 261.836 134.438 C 261.836 119.808 273.836 110.078 291.726 110.078 C 308.406 110.078 320.586 119.808 321.326 133.638 L 308.946 133.638 C 307.756 126.068 301.146 121.348 291.586 121.348 C 281.506 121.348 274.796 126.188 274.796 133.588 C 274.796 139.448 279.116 142.808 289.796 145.308 L 298.796 147.528 C 315.646 151.458 322.586 158.288 322.586 170.648 C 322.586 186.358 310.406 196.208 290.936 196.208 C 272.716 196.208 260.486 186.808 259.566 172.128 Z"/>
  <path class="cls-1" d="M 378.536 152.518 C 377.106 146.518 372.106 141.988 363.906 141.988 C 353.656 141.988 347.396 149.838 347.396 163.048 C 347.396 176.478 353.716 184.508 363.906 184.508 C 371.646 184.508 376.906 180.978 378.536 174.318 L 390.436 174.318 C 388.836 186.788 379.276 195.438 363.956 195.438 C 345.956 195.438 334.876 183.258 334.876 163.048 C 334.876 143.178 345.876 131.048 363.876 131.048 C 379.416 131.048 388.806 140.048 390.406 152.508 Z"/>
  <path class="cls-1" d="M 400.846 176.708 C 400.846 165.548 409.156 159.118 423.846 158.208 L 440.646 157.208 L 440.646 151.858 C 440.646 145.308 436.316 141.608 427.946 141.608 C 421.116 141.608 416.396 144.118 415.026 148.498 L 403.186 148.498 C 404.436 137.858 414.456 131.028 428.516 131.028 C 444.056 131.028 452.826 138.768 452.826 151.858 L 452.826 194.208 L 441.046 194.208 L 441.046 185.498 L 440.046 185.498 C 436.346 191.708 429.566 195.238 421.426 195.238 C 409.556 195.268 400.846 188.038 400.846 176.708 Z M 440.696 171.418 L 440.696 166.238 L 425.546 167.238 C 417.006 167.808 413.136 170.718 413.136 176.178 C 413.136 181.638 417.976 185.008 424.636 185.008 C 433.866 184.968 440.696 179.148 440.696 171.418 Z"/>
  <path class="cls-1" d="M 470.286 132.248 L 482.076 132.248 L 482.076 142.148 L 482.986 142.148 C 485.986 135.258 492.146 131.148 501.486 131.148 C 515.316 131.148 522.946 139.458 522.946 154.148 L 522.946 194.278 L 510.706 194.278 L 510.706 157.148 C 510.706 147.148 506.376 142.238 497.326 142.238 C 488.276 142.238 482.526 148.238 482.526 157.948 L 482.526 194.208 L 470.286 194.208 Z"/>
</svg>