<?xml version="1.0" encoding="utf-8"?>
<svg viewBox="0 0 1878.67 500" xmlns="http://www.w3.org/2000/svg">
  <defs>
    <style>.cls-1{fill:#fff;}.cls-2{fill:#242828;}.cls-3{fill:#00e8b4;}</style>
  </defs>
  <title>Asset 44</title>
  <g id="Layer_2" data-name="Layer 2">
    <g id="Layer_1-2" data-name="Layer 1">
      <path class="cls-1" d="M 574.93 344.84 C 562.59 341.26 552.34 336.3 544.18 329.96 L 556.68 302.21 C 573.431 313.986 593.455 320.208 613.93 320 C 624.93 320 633.39 318.21 639.31 314.63 C 645.23 311.05 648.187 306.09 648.18 299.75 C 648.18 294.09 645.473 289.673 640.06 286.5 C 634.647 283.327 625.02 280.243 611.18 277.25 C 595.68 274.09 583.307 270.257 574.06 265.75 C 564.813 261.243 558.063 255.703 553.81 249.13 C 549.563 242.55 547.437 234.423 547.43 224.75 C 547.286 214.548 550.396 204.565 556.31 196.25 C 562.223 187.917 570.513 181.377 581.18 176.63 C 591.847 171.883 604.18 169.507 618.18 169.5 C 630.434 169.466 642.621 171.321 654.31 175 C 665.89 178.667 675.097 183.583 681.93 189.75 L 669.43 217.5 C 653.257 205.667 636.257 199.75 618.43 199.75 C 608.257 199.75 600.257 201.71 594.43 205.63 C 588.603 209.55 585.687 214.923 585.68 221.75 C 585.541 225.349 586.745 228.871 589.06 231.63 C 591.313 234.21 595.063 236.5 600.31 238.5 C 607.616 241.089 615.09 243.177 622.68 244.75 C 645.347 249.75 661.64 256.167 671.56 264 C 681.48 271.833 686.437 282.667 686.43 296.5 C 686.43 313.167 680.013 326.293 667.18 335.88 C 654.347 345.467 636.43 350.257 613.43 350.25 C 600.405 350.281 587.442 348.46 574.93 344.84 Z"/>
      <path class="cls-1" d="M 722.68 333 C 711.18 321.667 705.43 306.25 705.43 286.75 C 705.43 273.923 708.18 262.633 713.68 252.88 C 719.069 243.24 727.148 235.377 736.93 230.25 C 746.93 224.917 758.513 222.25 771.68 222.25 C 780.512 222.225 789.29 223.62 797.68 226.38 C 806.007 229.133 812.757 232.84 817.93 237.5 L 807.93 263.25 C 803.152 259.452 797.789 256.457 792.05 254.38 C 786.652 252.361 780.943 251.302 775.18 251.25 C 765.34 251.25 757.713 254.167 752.3 260 C 746.887 265.833 744.18 274.5 744.18 286 C 744.18 297.5 746.887 306.21 752.3 312.13 C 757.713 318.05 765.34 321.007 775.18 321 C 780.942 320.952 786.652 319.896 792.05 317.88 C 797.791 315.804 803.155 312.805 807.93 309 L 817.93 335 C 812.43 339.667 805.43 343.333 796.93 346 C 788.187 348.705 779.081 350.054 769.93 350 C 749.93 350 734.18 344.333 722.68 333 Z"/>
      <path class="cls-1" d="M 959.17 225.21 L 959.17 348 L 921.67 348 L 921.67 329.71 C 917.995 336.063 912.574 341.228 906.05 344.59 C 898.985 348.245 891.123 350.09 883.17 349.96 C 872.503 349.96 863.087 347.377 854.92 342.21 C 846.753 337.043 840.38 329.67 835.8 320.09 C 831.213 310.51 828.92 299.383 828.92 286.71 C 828.92 274.037 831.213 262.83 835.8 253.09 C 839.951 243.848 846.623 235.963 855.05 230.34 C 863.404 224.889 873.196 222.058 883.17 222.21 C 891.124 222.083 898.986 223.931 906.05 227.59 C 912.571 230.952 917.992 236.112 921.67 242.46 L 921.67 225.21 Z M 914.55 312.21 C 919.303 306.21 921.677 297.543 921.67 286.21 C 921.663 274.877 919.29 266.17 914.55 260.09 C 909.803 254.01 903.01 250.967 894.17 250.96 C 885.33 250.953 878.497 254.08 873.67 260.34 C 868.837 266.593 866.42 275.383 866.42 286.71 C 866.42 297.883 868.837 306.427 873.67 312.34 C 878.503 318.253 885.337 321.21 894.17 321.21 C 903.01 321.21 909.803 318.21 914.55 312.21 Z"/>
      <path class="cls-1" d="M 1097.92 235.09 C 1105.087 243.697 1108.67 256.667 1108.67 274 L 1108.67 348 L 1070.92 348 L 1070.92 275.71 C 1070.92 267.383 1069.38 261.3 1066.3 257.46 C 1063.22 253.62 1058.427 251.703 1051.92 251.71 C 1044.087 251.71 1037.797 254.21 1033.05 259.21 C 1028.303 264.21 1025.927 270.877 1025.92 279.21 L 1025.92 348 L 988.17 348 L 988.17 225.21 L 1024.92 225.21 L 1024.92 242.71 C 1029.076 236.203 1034.906 230.936 1041.8 227.46 C 1049.063 223.88 1057.074 222.08 1065.17 222.21 C 1079.837 222.21 1090.753 226.503 1097.92 235.09 Z"/>
      <circle class="cls-1" cx="250" cy="250" r="250"/>
      <path class="cls-2" d="M354.48,145.52A104.21,104.21,0,1,0,243.94,316.71h0c2,.74,3.91,1.41,5.9,2A104.5,104.5,0,0,0,279,323.41c1.2,0,2.41,0,3.61,0a104.5,104.5,0,0,0,29.14-4.67q3-.92,5.9-2a104.28,104.28,0,0,0,36.84-171.2ZM244,256.05a52.11,52.11,0,1,1,73.69,0A52.12,52.12,0,0,1,244,256.05Z"/>
      <polygon class="cls-3" points="115 348.16 151.84 385 267.31 269.54 191.01 272.15 115 348.16"/>
    </g>
  </g>
</svg>