<?xml version="1.0" encoding="utf-8"?>
<svg viewBox="0 0 1878.67 500" xmlns="http://www.w3.org/2000/svg">
  <defs>
    <style>.cls-1{fill:#242828;}.cls-2{fill:#fff;}.cls-3{fill:#00e8b4;}</style>
  </defs>
  <title>Asset 45</title>
  <g id="Layer_2" data-name="Layer 2">
    <g id="Layer_1-2" data-name="Layer 1">
      <path class="cls-1" d="M 598.93 344.84 C 586.59 341.26 576.34 336.3 568.18 329.96 L 580.68 302.21 C 597.431 313.986 617.455 320.208 637.93 320 C 648.93 320 657.39 318.21 663.31 314.63 C 669.23 311.05 672.187 306.09 672.18 299.75 C 672.18 294.09 669.473 289.673 664.06 286.5 C 658.647 283.327 649.02 280.243 635.18 277.25 C 619.68 274.09 607.307 270.257 598.06 265.75 C 588.813 261.243 582.063 255.703 577.81 249.13 C 573.563 242.55 571.437 234.423 571.43 224.75 C 571.286 214.548 574.396 204.565 580.31 196.25 C 586.223 187.917 594.513 181.377 605.18 176.63 C 615.847 171.883 628.18 169.507 642.18 169.5 C 654.434 169.466 666.621 171.321 678.31 175 C 689.89 178.667 699.097 183.583 705.93 189.75 L 693.43 217.5 C 677.257 205.667 660.257 199.75 642.43 199.75 C 632.257 199.75 624.257 201.71 618.43 205.63 C 612.603 209.55 609.687 214.923 609.68 221.75 C 609.541 225.349 610.745 228.871 613.06 231.63 C 615.313 234.21 619.063 236.5 624.31 238.5 C 631.616 241.089 639.09 243.177 646.68 244.75 C 669.347 249.75 685.64 256.167 695.56 264 C 705.48 271.833 710.437 282.667 710.43 296.5 C 710.43 313.167 704.013 326.293 691.18 335.88 C 678.347 345.467 660.43 350.257 637.43 350.25 C 624.405 350.281 611.442 348.46 598.93 344.84 Z"/>
      <path class="cls-1" d="M 746.68 333 C 735.18 321.667 729.43 306.25 729.43 286.75 C 729.43 273.923 732.18 262.633 737.68 252.88 C 743.069 243.24 751.148 235.377 760.93 230.25 C 770.93 224.917 782.513 222.25 795.68 222.25 C 804.512 222.225 813.29 223.62 821.68 226.38 C 830.007 229.133 836.757 232.84 841.93 237.5 L 831.93 263.25 C 827.152 259.452 821.789 256.457 816.05 254.38 C 810.652 252.361 804.943 251.302 799.18 251.25 C 789.34 251.25 781.713 254.167 776.3 260 C 770.887 265.833 768.18 274.5 768.18 286 C 768.18 297.5 770.887 306.21 776.3 312.13 C 781.713 318.05 789.34 321.007 799.18 321 C 804.942 320.952 810.652 319.896 816.05 317.88 C 821.791 315.804 827.155 312.805 831.93 309 L 841.93 335 C 836.43 339.667 829.43 343.333 820.93 346 C 812.187 348.705 803.081 350.054 793.93 350 C 773.93 350 758.18 344.333 746.68 333 Z"/>
      <path class="cls-1" d="M 983.17 225.21 L 983.17 348 L 945.67 348 L 945.67 329.71 C 941.995 336.063 936.574 341.228 930.05 344.59 C 922.985 348.245 915.123 350.09 907.17 349.96 C 896.503 349.96 887.087 347.377 878.92 342.21 C 870.753 337.043 864.38 329.67 859.8 320.09 C 855.213 310.51 852.92 299.383 852.92 286.71 C 852.92 274.037 855.213 262.83 859.8 253.09 C 863.951 243.848 870.623 235.963 879.05 230.34 C 887.404 224.889 897.196 222.058 907.17 222.21 C 915.124 222.083 922.986 223.931 930.05 227.59 C 936.571 230.952 941.992 236.112 945.67 242.46 L 945.67 225.21 Z M 938.55 312.21 C 943.303 306.21 945.677 297.543 945.67 286.21 C 945.663 274.877 943.29 266.17 938.55 260.09 C 933.803 254.01 927.01 250.967 918.17 250.96 C 909.33 250.953 902.497 254.08 897.67 260.34 C 892.837 266.593 890.42 275.383 890.42 286.71 C 890.42 297.883 892.837 306.427 897.67 312.34 C 902.503 318.253 909.337 321.21 918.17 321.21 C 927.01 321.21 933.803 318.21 938.55 312.21 Z"/>
      <path class="cls-1" d="M 1121.92 235.09 C 1129.087 243.697 1132.67 256.667 1132.67 274 L 1132.67 348 L 1094.92 348 L 1094.92 275.71 C 1094.92 267.383 1093.38 261.3 1090.3 257.46 C 1087.22 253.62 1082.427 251.703 1075.92 251.71 C 1068.087 251.71 1061.797 254.21 1057.05 259.21 C 1052.303 264.21 1049.927 270.877 1049.92 279.21 L 1049.92 348 L 1012.17 348 L 1012.17 225.21 L 1048.92 225.21 L 1048.92 242.71 C 1053.076 236.203 1058.906 230.936 1065.8 227.46 C 1073.063 223.88 1081.074 222.08 1089.17 222.21 C 1103.837 222.21 1114.753 226.503 1121.92 235.09 Z"/>
      <circle class="cls-1" cx="250" cy="250" r="250"/>
      <path class="cls-2" d="M354.48,145.52A104.21,104.21,0,1,0,243.94,316.71h0c2,.74,3.91,1.41,5.9,2A104.5,104.5,0,0,0,279,323.41c1.2,0,2.41,0,3.61,0a104.5,104.5,0,0,0,29.14-4.67q3-.92,5.9-2a104.28,104.28,0,0,0,36.84-171.2ZM244,256.05a52.11,52.11,0,1,1,73.69,0A52.12,52.12,0,0,1,244,256.05Z"/>
      <polygon class="cls-3" points="115 348.16 151.84 385 267.31 269.54 191.01 272.15 115 348.16"/>
    </g>
  </g>
</svg>